# xmcd
#
# Track frame offsets: 
#        150
#        17517
#        40777
#        63977
#        71045
#        87844
#        103789
#        126217
#        143568
#        148925
#        169042
#        180402
#        202318
#        225147
#        242546
#        256148
#        268883
#        280534
#
# Disc length: 3945 seconds
#
# Revision: 0
# Processed by: cddbd v1.5.2PL0 Copyright (c) Steve Scherf et al.
# Submitted via: ExactAudioCopy v0.99pb1
#
DISCID=f80f6712
DTITLE=Dr. Ross - The Flying Eagle (Bonus Tracks)
DYEAR=1900
DGENRE=Blues
TTITLE0=Flying Eagle Boogie
TTITLE1=Goin' Down Slow
TTITLE2=Something To Tell You, Want All My Freinds To Knew
TTITLE3=Tommy Dorsey Boogie
TTITLE4=Hobo Blues
TTITLE5=Mother Before This Time Another Year
TTITLE6=Bad Whiskey, Bad Women
TTITLE7=Decoration Day
TTITLE8=Too Close Together
TTITLE9=Rollin' And Tumblin'
TTITLE10=Mean Old World
TTITLE11=Rock Me
TTITLE12=Miss Elvira
TTITLE13=After Hour Blues
TTITLE14=Sugar Gal
TTITLE15=Sweet Black Angel
TTITLE16=Stop Cryin'
TTITLE17=Train Fair Home
EXTD=
EXTT0=
EXTT1=
EXTT2=
EXTT3=
EXTT4=
EXTT5=
EXTT6=
EXTT7=
EXTT8=
EXTT9=
EXTT10=
EXTT11=
EXTT12=
EXTT13=
EXTT14=
EXTT15=
EXTT16=
EXTT17=
PLAYORDER=
